<?xml version="1.0" standalone="no"?><!DOCTYPE svg PUBLIC "-//W3C//DTD SVG 1.1//EN" "http://www.w3.org/Graphics/SVG/1.1/DTD/svg11.dtd"><svg t="1677143113371" class="icon" viewBox="0 0 7984 1024" version="1.1" xmlns="http://www.w3.org/2000/svg" p-id="24965" xmlns:xlink="http://www.w3.org/1999/xlink" width="249.5" height="32"><path d="M909.2 0H114.8C51.8 0 0 51.8 0 114.8v794.6C0 972.2 51.8 1024 114.8 1024h794.6c62.8 0 114.8-51.8 114.8-114.8V114.8C1024 51.8 972.2 0 909.2 0z m-117.8 649.8c0 9.6-8.2 13.8-17.8 17.8-38.4 16.2-79.4 31.4-123 31.4-81 0-137.4-89.6-326.4 5v103.6c0 60.6-91.4 60.4-91.4 0v-500c-18-14-30-35.8-30-60.6 0-42 34.2-76.4 76.4-76.4 42 0 76.4 34.2 76.4 76.4 0 24.4-11.6 46.4-29.8 60.4v42c74.2-24 131-68.8 292.2-6.8 53.2 22.8 137.4-31.4 153-31.4 11 0 20.6 8.2 20.6 17.8v320.8z m865.8-348.4h-274v140.2H1650c79.6 0 80.8 124.4 0 124.4H1383.2v211.2c0 91-141.4 92.8-141.4 0V256.6c0-44 36-79.6 79.6-79.6h335.6c79.2 0 81 124.4 0.2 124.4z m382.2 46.8c-338.6 0-338.2 504.8 0 504.8 339.8 0 339.8-504.8 0-504.8z m0 392.2c-163.2 0-164.2-279.6 0-279.6 165 0 164.8 279.6 0 279.6z m744.8 106.8c-35 0-62.8-27.8-62.8-62.8v-234c0-124.8-145.2-105-198.2-32.8v266.8c0 83-126.6 83.6-126.6 0V416c0-80 126.2-83.2 126.2 0v6.8c86.6-103.2 324.8-120.8 324.8 78.6v283c0.6 60.8-63 62.8-63.4 62.8z m359.4 5.8c-88.6 0-136.6-45.8-136.6-131.6V470.4H2976c-71.2 0-73.4-110.6 0-110.6h31v-74.6c0-82.6 127.6-84.2 127.6 0v75h49.8c70.8 0 71.4 110.6 0 110.6h-49.8v217c0 59.2 52.2 52.6 54.8 52.6 62.8 0 105.2 112.6-45.8 112.6zM3984 246c-39-100.4-191-100-229 0-214.6 551.4-199 505.4-199 525.6 0 85.6 116.6 102.4 144.2 28.8l27-71.8H4012l26 71.8c28.4 75.4 144.2 54.4 144.2-28.8 0-20.2 10.6 13.6-198.2-525.6z m-217.8 358.2l103.4-285.8 103.6 285.8h-207z m1182.6-171.2l-107.4 352.6c-24.8 82.4-144 82-168 0l-84.6-271.8-84.6 271.8c-24.8 81.8-144 82.4-169 0l-108.4-352.6c-25-78.8 99.6-112.2 120.4-33.8L4426 684l90.6-279c21.8-65.4 119.2-69.4 142.4 0l90.6 279 78.6-284.8c20.6-76.6 145.2-47.6 120.6 33.8z m550.8 150.2c0-84.8-67.8-235-239-235-146.4 0-248.8 112.6-248.8 252 0 154.4 110.6 252.8 257 252.8 63.4 0 186-23 186-79.6 0-36.6-42.2-63-78.6-44.8-98.8 52.4-218 16.8-231.8-87.6h296.6c32.6 0 58.6-26.8 58.6-57.8zM5142 555.4c19-146.8 227.8-137.2 237.2 0H5142z m633.4 297.6c-62.8 0-163.2-21-193.2-63.8-24.8-34 5-79.6 43.6-79.6 32.6 0 73.6 45.8 155.4 45.8 54.8 0 80.8-22 80.8-51.6 0-79.6-285.8-14.8-285.8-204 0-80.8 70.6-151.4 197.2-151.4 62.8 0 148.2 19.8 175.2 58.8 21.6 29.6-2.8 72.4-41.8 72.4-30.2 0-53.4-34.6-132.4-34.6-45.8 0-75.6 21-75.6 47.6 0 71.8 284.8 12 284.8 206.2-0.2 87.4-74.8 154.2-208.2 154.2z m533.6-504.8c-338.6 0-338.2 504.8 0 504.8 340.2 0 339.2-504.8 0-504.8z m0 392.2c-163.6 0-164-279.6 0-279.6 165 0 164.8 279.6 0 279.6z m953.8 44V537.4c0-107.6-122.8-91.6-171.4-21v268c0 82.6-127.6 84.2-127.6 0V537.4c0-104.2-119-94.8-171.4-20.2v267.2c0 83-126.6 83.6-126.6 0V416c0-80 126.2-83.2 126.2 0v6.8c19.8-28.8 83.6-74.6 157.2-74.6 70.6 0 115.4 32.8 133.4 87.6 27.8-43.6 91.6-87.6 165.2-87.6 88.6 0 141.4 46.8 141.4 145.4v290.6c1 34.6-27 62.8-63.8 62.8 7 0.2-62.6 2.2-62.6-62.6zM7984 583.2c0-84.8-64.8-235-235.8-235-146.4 0-255 112.6-255 252 0 154.4 116.6 252.8 263.2 252.8 63.4 0 183-23 183-79.6 0-36.6-42.2-63-78.6-44.8-98.8 52.4-221 16.8-235-87.6h299.6c32.6 0 58.2-26.8 58.6-57.8z m-361-27.8c19.4-148.8 231.8-136.6 240.2 0h-240.2z" fill="#1296db" p-id="24966"></path></svg>